<?xml version="1.0" encoding="UTF-8"?>
<svg version="1.1" xmlns="http://www.w3.org/2000/svg" width="256" height="256">
<path d="M0 0 C1.0219043 -0.02416992 1.0219043 -0.02416992 2.06445312 -0.04882812 C8.39069495 -0.05490521 13.23038839 2.14851665 17.9375 6.3125 C17.9375 6.9725 17.9375 7.6325 17.9375 8.3125 C18.5975 8.3125 19.2575 8.3125 19.9375 8.3125 C20.2675 7.3225 20.5975 6.3325 20.9375 5.3125 C28.79839715 -0.49772833 36.53550998 -0.46188871 45.9375 0.3125 C58.95101586 2.72000043 72.35738184 10.95733581 82.8671875 18.77734375 C84.87657421 20.31460014 84.87657421 20.31460014 86.8828125 21.50390625 C92.80432614 25.1824223 96.86135405 31.11040628 98.59375 37.875 C98.90158527 40.05783192 99.07137783 42.11079706 99.0625 44.3125 C99.06507813 44.951875 99.06765625 45.59125 99.0703125 46.25 C98.91475219 48.66576017 98.45428077 50.95007361 97.9375 53.3125 C98.54335937 53.49683594 99.14921875 53.68117187 99.7734375 53.87109375 C109.44860604 57.22019055 116.77839401 63.48150864 122 72.29296875 C124.8257237 78.38004854 125.00514447 83.0652874 124.6875 89.625 C124.47377116 97.74592416 125.61500827 102.04198175 130.9375 108.3125 C135.09578791 115.24297985 134.7098014 123.50732625 133.9375 131.3125 C132.94076302 134.85944692 131.57552701 138.02328913 129.9375 141.3125 C128.63831625 144.14436699 128.63831625 144.14436699 129.6796875 146.21484375 C130.05351562 146.88644531 130.42734375 147.55804688 130.8125 148.25 C135.04752715 155.93524157 135.13850167 164.89769817 133.25390625 173.39453125 C130.30005317 182.15803727 125.40218601 188.88363745 117.9375 194.3125 C117.2775 194.3125 116.6175 194.3125 115.9375 194.3125 C116.20240234 195.36050781 116.20240234 195.36050781 116.47265625 196.4296875 C118.03251547 206.10343627 114.46540574 215.51886465 108.9375 223.3125 C103.9103659 229.50350367 98.70138151 233.12102439 91.62890625 236.65234375 C87.68878633 239.08275154 85.14868002 242.39349547 82.19140625 245.90625 C76.08871489 252.4214283 67.82265491 256.14152541 58.921875 256.6484375 C46.50110448 256.91298756 36.35974891 255.02214185 26.9375 246.3125 C19.9375 239.15219466 19.9375 239.15219466 19.9375 236.3125 C19.2775 236.3125 18.6175 236.3125 17.9375 236.3125 C17.67710938 237.05628906 17.41671875 237.80007812 17.1484375 238.56640625 C13.26154682 247.38087124 4.44039814 251.80201777 -4.0625 255.3125 C-12.90233177 258.36456823 -25.28673754 257.21858962 -33.7109375 253.56640625 C-39.53914306 250.45867538 -43.71940655 246.81844762 -47.9375 241.75 C-50.73730681 238.45707653 -53.05596487 236.57420966 -57 234.8125 C-66.59387282 230.47978324 -73.36125026 222.06579323 -77.0625 212.3125 C-79.92632515 199.84955721 -79.92632515 199.84955721 -78.0625 194.3125 C-78.80371094 194.06628906 -79.54492188 193.82007813 -80.30859375 193.56640625 C-87.27714232 190.39349265 -91.5775798 183.23277439 -94.37109375 176.35546875 C-97.86071603 166.04432495 -96.78918716 155.9746838 -92.0625 146.3125 C-90.76331625 143.48063301 -90.76331625 143.48063301 -91.8046875 141.41015625 C-92.36542969 140.40275391 -92.36542969 140.40275391 -92.9375 139.375 C-97.32580475 131.41160782 -97.52298787 121.5118368 -95.0859375 112.8359375 C-93.42555305 108.73081522 -91.98189232 105.26992474 -88.890625 102.05078125 C-86.23460833 98.0724315 -86.79054347 94.77368607 -87.0625 90.125 C-87.33367778 79.55106777 -85.76560869 73.21403514 -78.8125 65 C-73.30252379 59.23669155 -67.79930825 55.44012227 -60.0625 53.3125 C-60.2275 52.6525 -60.3925 51.9925 -60.5625 51.3125 C-62.04211277 42.43482339 -60.64525662 34.90391334 -55.75 27.3125 C-51.51166148 22.00664978 -45.5161557 18.74916632 -39.75634766 15.32470703 C-38.28606467 14.44609745 -36.83452121 13.53627399 -35.38671875 12.62109375 C-24.5235825 5.81163191 -13.03928159 -0.06203274 0 0 Z M-26.0625 18.3125 C-25.0725 18.9725 -24.0825 19.6325 -23.0625 20.3125 C-13.75017705 26.83303824 -13.75017705 26.83303824 -11.0625 31.3125 C-10.8125 34.625 -10.8125 34.625 -11.0625 37.3125 C-15.8125 38.3125 -15.8125 38.3125 -18.0625 38.3125 C-18.289375 37.57 -18.51625 36.8275 -18.75 36.0625 C-20.88032144 31.59896937 -24.59350002 29.20819494 -29.0625 27.3125 C-34.82614343 26.38172529 -39.70325439 26.50003366 -44.5625 29.9375 C-48.46788069 33.37871659 -50.78487743 36.44525052 -51.30078125 41.7734375 C-51.53995392 47.8872427 -51.53995392 47.8872427 -49.0625 53.3125 C-46.73528243 54.27041948 -46.73528243 54.27041948 -44 54.75 C-34.55090668 57.07213012 -27.57844667 61.1460335 -22.0625 69.3125 C-18.06898517 76.61978246 -17.0625 84.0673938 -17.0625 92.3125 C-19.0425 92.3125 -21.0225 92.3125 -23.0625 92.3125 C-24.86232967 89.13455807 -25.48761106 86.26632085 -26.125 82.6875 C-28.05775019 74.74282836 -32.56159119 69.39290922 -39.265625 64.8046875 C-45.63939655 61.52609278 -52.63829046 61.0585043 -59.515625 63.0078125 C-67.35202162 66.17968732 -72.83290615 70.75856921 -76.3359375 78.48046875 C-77.65151816 81.79771245 -78.19875645 84.39171848 -78.1875 87.9375 C-78.18878906 88.82566406 -78.19007812 89.71382813 -78.19140625 90.62890625 C-78.07003128 93.15571253 -77.64133632 95.40613136 -77.125 97.875 C-76.73228787 100.854376 -76.84931602 101.96720201 -78.44921875 104.55859375 C-79.70292127 106.07512699 -80.97693326 107.5750731 -82.26953125 109.05859375 C-86.12488603 113.90508549 -87.67731354 120.02824894 -87.41796875 126.203125 C-86.22165775 133.30211335 -83.06376188 140.00624639 -77.48828125 144.61328125 C-72.29925843 148.30107734 -66.91142551 149.51225294 -60.72265625 150.734375 C-58.0625 151.3125 -58.0625 151.3125 -57.0625 152.3125 C-56.9375 154.8125 -56.9375 154.8125 -57.0625 157.3125 C-58.63846305 158.88846305 -60.18502067 158.59668746 -62.375 158.6875 C-70.32878179 158.64172284 -77.11135393 154.83748876 -84.0625 151.3125 C-87.5193817 160.20162436 -88.30382195 166.98111941 -84.46484375 175.84765625 C-81.63126766 180.82812008 -77.5779543 185.15596929 -72.34375 187.5625 C-70.0625 189.3125 -70.0625 189.3125 -69.49609375 192.75390625 C-69.47969355 194.12750688 -69.48194325 195.50142015 -69.5 196.875 C-69.23984501 206.61660215 -67.07338579 214.19135445 -60.26953125 221.484375 C-56.09679496 224.94073002 -49.64694765 229.3125 -44.0625 229.3125 C-43.815 230.034375 -43.5675 230.75625 -43.3125 231.5 C-39.89652936 239.18593394 -33.33707305 243.53814892 -25.75 246.6875 C-15.55802067 248.41495412 -6.82822553 247.778936 1.9375 241.9921875 C8.12032994 237.11521389 11.81233327 230.83952226 13.9375 223.3125 C15.04097469 213.20159237 13.54522315 204.57743515 7.1875 196.5 C2.06332638 191.02733095 -3.81945435 187.97236463 -11.0625 186.3125 C-11.10504356 184.31295254 -11.10330783 182.31208364 -11.0625 180.3125 C-10.7325 179.9825 -10.4025 179.6525 -10.0625 179.3125 C-0.04379783 179.47152702 6.33801748 184.18859156 13.9375 190.3125 C14.07659385 177.13438315 14.18316943 163.95644128 14.24837303 150.77773952 C14.27966958 144.65812161 14.32211354 138.53900636 14.39013672 132.41967773 C14.45538642 126.51280345 14.49121865 120.60641229 14.50676346 114.6992054 C14.51783952 112.44692442 14.53946889 110.19466953 14.57188034 107.94259453 C14.61551661 104.78463739 14.62143087 101.62866969 14.61865234 98.47045898 C14.640224 97.54185059 14.66179565 96.61324219 14.684021 95.65649414 C14.6290734 89.87481941 13.51349822 86.81944491 9.49689674 82.61747837 C7.31772104 80.79383909 5.31902777 80.00825638 2.5625 79.375 C1.25152344 79.05208984 1.25152344 79.05208984 -0.0859375 78.72265625 C-0.73820312 78.58730469 -1.39046875 78.45195313 -2.0625 78.3125 C-2.0625 76.3325 -2.0625 74.3525 -2.0625 72.3125 C2.19807181 71.07917658 5.03626289 71.4789638 9.1640625 72.79296875 C10.50718506 73.21485474 10.50718506 73.21485474 11.87744141 73.64526367 C12.55726074 73.86545166 13.23708008 74.08563965 13.9375 74.3125 C14.03900834 66.44721512 14.10901159 58.5820995 14.15722656 50.71630859 C14.17506825 48.04086625 14.20461049 45.36627984 14.23925781 42.69091797 C14.28783506 38.84331429 14.31048365 34.99629213 14.328125 31.1484375 C14.34877014 29.95447357 14.36941528 28.76050964 14.39068604 27.53036499 C14.39240438 21.15627154 14.31224091 17.11579936 9.9375 12.3125 C6.18248961 8.99925554 2.57343542 8.80302741 -2.25 8.9609375 C-10.91859562 10.04451195 -18.6974336 13.77442879 -26.0625 18.3125 Z M25.2956543 15.40698242 C23.43394564 19.38976056 23.56108524 22.77281325 23.64453125 27.11328125 C23.64877609 27.94965622 23.65302094 28.78603119 23.65739441 29.64775085 C23.67412636 32.30716765 23.71176774 34.965814 23.75 37.625 C23.76505396 39.43293173 23.77874112 41.24087539 23.79101562 43.04882812 C23.82401184 47.47034689 23.87575572 51.89129302 23.9375 56.3125 C25.33669678 55.82354248 25.33669678 55.82354248 26.76416016 55.32470703 C29.85390011 54.33916604 32.09797531 54.10062095 35.3125 54.1875 C36.18648437 54.20554688 37.06046875 54.22359375 37.9609375 54.2421875 C38.61320313 54.26539063 39.26546875 54.28859375 39.9375 54.3125 C39.9375 56.2925 39.9375 58.2725 39.9375 60.3125 C39.34582031 60.48265625 38.75414062 60.6528125 38.14453125 60.828125 C32.74367693 62.48450447 28.01606263 64.05616517 24.82530785 69.05489159 C23.67800686 71.97236565 23.67959252 74.36098008 23.67007446 77.49673462 C23.66154449 78.76673309 23.65301453 80.03673157 23.64422607 81.34521484 C23.6449251 82.75048841 23.64584816 84.15576187 23.64697266 85.56103516 C23.64098728 87.04292133 23.63418171 88.52480439 23.62661743 90.00668335 C23.60894503 94.03179961 23.60426136 98.05683083 23.60298586 102.08198214 C23.60156371 104.59942666 23.59729276 107.11684962 23.59199142 109.63428879 C23.57348277 118.42498902 23.56532132 127.21562859 23.56689453 136.00634766 C23.5680942 144.18607879 23.54702841 152.36554531 23.5154072 160.54520953 C23.48919653 167.57724798 23.47852933 174.60920032 23.47980535 181.64128721 C23.48031384 185.83684611 23.47469428 190.03217017 23.45344925 194.22768021 C23.43398744 198.17912591 23.43399609 202.13011484 23.44848251 206.0815773 C23.45056235 207.52546359 23.44591928 208.96937904 23.4337616 210.41321564 C23.34792545 221.32076907 24.55373749 230.55753711 32.234375 238.78125 C39.59380707 245.39798709 47.09598129 247.76482487 56.91015625 247.55859375 C65.61840687 246.85069725 72.840722 243.08544524 78.546875 236.4375 C81.1075465 233.20804799 81.1075465 233.20804799 81.9375 229.3125 C82.494375 229.16554687 83.05125 229.01859375 83.625 228.8671875 C92.82583789 226.16288718 98.50544661 221.6825935 103.7109375 213.65625 C106.22743626 208.84765363 107.08537826 204.83544069 107.0612793 199.40014648 C107.0665122 190.45084137 107.0665122 190.45084137 109.56640625 187.18359375 C111.625 185.75 111.625 185.75 113.8046875 184.51953125 C119.20767604 181.46179598 122.5926583 176.15070051 124.46875 170.34375 C126.08598646 163.33572533 124.47456287 157.83637595 121.9375 151.3125 C121.03386719 151.73402344 120.13023437 152.15554687 119.19921875 152.58984375 C117.42998047 153.41162109 117.42998047 153.41162109 115.625 154.25 C114.45324219 154.79527344 113.28148437 155.34054688 112.07421875 155.90234375 C108.06591251 157.70433447 105.17054472 158.45020567 100.8125 158.4375 C99.92304688 158.44007813 99.03359375 158.44265625 98.1171875 158.4453125 C95.9375 158.3125 95.9375 158.3125 94.9375 157.3125 C94.89686168 155.64632885 94.894779 153.97861905 94.9375 152.3125 C95.865625 152.065 96.79375 151.8175 97.75 151.5625 C108.17032836 148.54888162 116.16914989 146.03206213 121.8671875 136.3203125 C125.16099415 130.14141973 125.96408114 124.36049607 124.25 117.6015625 C122.68813851 112.85090045 121.17543835 109.25449051 117.625 105.6875 C114.98283569 102.89965244 114.98283569 102.89965244 114.77734375 100.23828125 C115.07435831 97.9069204 115.50284392 95.62184664 115.9375 93.3125 C116.77558775 84.29240307 114.76084872 77.65703251 109.1875 70.5 C104.95896531 65.86259936 98.84077467 62.76712434 92.58984375 62.0390625 C84.04865948 61.71953618 78.33504871 63.79598005 71.67578125 69.12109375 C65.22629377 75.42752421 63.65051924 82.75867366 61.9375 91.3125 C57.1875 92.3125 57.1875 92.3125 54.9375 92.3125 C54.33538702 81.67517062 57.11932373 72.56432702 63.9375 64.3125 C69.70428236 58.20189863 76.86795939 55.1410074 85.0546875 54 C87.08173411 53.462691 87.08173411 53.462691 88.17578125 51.5546875 C89.90437642 46.46641247 89.49893919 41.13717737 87.9375 36.0625 C84.55829289 31.41609022 81.02676628 27.94561998 75.25 26.76171875 C68.59345653 26.43813678 63.98225596 27.97252612 58.9375 32.3125 C56.43343276 34.93147621 56.43343276 34.93147621 55.9375 38.3125 C53.93795254 38.35504356 51.93708364 38.35330783 49.9375 38.3125 C48.9375 37.3125 48.9375 37.3125 48.4375 34.75 C49.19194298 29.5632045 52.07048436 26.70969131 55.9375 23.3125 C58.56258185 21.67810121 61.07318248 20.51852843 63.9375 19.3125 C58.62146315 13.23449786 48.31431232 9.87258462 40.5 9.05859375 C33.80672728 8.7498267 29.60398521 9.91089753 25.2956543 15.40698242 Z " fill="#000000" transform="translate(109.0625,-0.3125)"/>
<path d="M0 0 C3.0625 0.1875 3.0625 0.1875 5.0625 2.1875 C5.39676966 3.88456136 5.65751992 5.59655831 5.875 7.3125 C7.26593622 15.49762469 10.9101461 20.60305977 17.12109375 25.9609375 C23.49897302 29.99042259 30.78045619 30.04119798 38.0625 29.1875 C42.56949147 27.62299028 46.44818327 25.4813494 50.16796875 22.5 C52.0625 21.1875 52.0625 21.1875 54.8125 21.5 C55.555 21.726875 56.2975 21.95375 57.0625 22.1875 C58.0625 24.75 58.0625 24.75 58.0625 28.1875 C53.81590993 33.7033223 47.56320714 37.01670731 41.0625 39.1875 C39.75345703 39.34025391 39.75345703 39.34025391 38.41796875 39.49609375 C35.8835564 39.9446253 35.8835564 39.9446253 34.875 42.26171875 C34.606875 43.12410156 34.33875 43.98648438 34.0625 44.875 C31.29295019 52.55967971 27.34185323 56.40704914 20.24609375 60.20703125 C15.8732616 62.17050329 11.85674281 62.71050831 7.0625 62.1875 C5 59.9375 5 59.9375 4.0625 57.1875 C4.67578125 55.10546875 4.67578125 55.10546875 6.0625 53.1875 C8.453125 52.31640625 8.453125 52.31640625 11.3125 51.75 C16.59832971 50.4631357 19.3543091 49.17380522 23.0625 45.1875 C24.93173203 42.03761127 24.93173203 42.03761127 26.0625 39.1875 C25.11375 39.125625 24.165 39.06375 23.1875 39 C14.55236782 37.69164664 8.21822412 33.1546656 2.75390625 26.53125 C-1.84419878 20.15974187 -4.08351553 14.3703155 -4.0625 6.5 C-4.06507812 5.52675781 -4.06765625 4.55351563 -4.0703125 3.55078125 C-3.87288012 0.03764623 -3.57114377 0.22794535 0 0 Z " fill="#000000" transform="translate(56.9375,83.8125)"/>
<path d="M0 0 C2.375 0.6875 2.375 0.6875 3.375 1.6875 C4.46766264 10.39297614 2.53686184 18.32673966 -2.61328125 25.4296875 C-9.57270081 33.53098074 -16.04185711 38.04613293 -26.625 39.6875 C-22.17111994 47.39348283 -22.17111994 47.39348283 -14.625 51.6875 C-12.29405466 52.0371418 -9.96095238 52.37304487 -7.625 52.6875 C-5.625 54.6875 -5.625 54.6875 -5.4375 57.75 C-5.625 60.6875 -5.625 60.6875 -6.625 61.6875 C-13.92571181 62.41477397 -19.64073343 61.6022659 -25.69140625 57.17578125 C-30.35029557 53.35772278 -35.12086447 48.90175798 -35.875 42.59765625 C-36.1225 41.96730469 -36.37 41.33695313 -36.625 40.6875 C-39.13146538 39.53218532 -39.13146538 39.53218532 -42.1875 38.8125 C-48.97582782 36.77357436 -53.65330651 33.65919349 -58.625 28.6875 C-58.875 26.1875 -58.875 26.1875 -58.625 23.6875 C-56.625 21.6875 -56.625 21.6875 -54.28125 21.3828125 C-51.1230906 21.74507196 -49.66936382 22.69006324 -47.125 24.5625 C-40.44350527 29.43246271 -34.8224307 30.60830728 -26.625 29.6875 C-19.4850344 27.55649488 -13.86882803 24.02907639 -9.9375 17.625 C-7.57036491 13.18569993 -6.75272686 8.94132681 -6.1796875 3.97265625 C-5.30658662 0.37572659 -3.56398537 -0.42428397 0 0 Z " fill="#000000" transform="translate(208.625,79.3125)"/>
<path d="M0 0 C1.3125 2.5625 1.3125 2.5625 2 5 C-0.54291144 8.46760651 -2.66226471 9.28975118 -6.75 9.9375 C-11.43784589 10.69338048 -14.55602276 12.24668827 -18.40625 14.9765625 C-20 16 -20 16 -22 16 C-22.66786436 17.33273381 -23.33425494 18.66620626 -24 20 C-24.34160156 20.67417969 -24.68320313 21.34835938 -25.03515625 22.04296875 C-27.62785325 27.4551005 -28.61976205 32.0112523 -29 38 C-27.7625 38.2784375 -27.7625 38.2784375 -26.5 38.5625 C-18.98738079 41.64804003 -13.37545996 47.66093175 -10 55 C-8.08986149 60.40692432 -6.13438921 66.22926142 -7 72 C-8.1875 73.9375 -8.1875 73.9375 -10 75 C-12.5625 74.9375 -12.5625 74.9375 -15 74 C-16.79535046 71.13885846 -17.30676582 68.56370313 -17.75 65.25 C-19.0138133 58.50302821 -22.55822342 54.3775193 -27.375 49.6875 C-32.99099327 46.07721861 -38.43311843 44.91936342 -45 44 C-47 42 -47 42 -47.125 38.875 C-47.08375 37.92625 -47.0425 36.9775 -47 36 C-44.36 35.34 -41.72 34.68 -39 34 C-38.90203125 33.29875 -38.8040625 32.5975 -38.703125 31.875 C-36.97746285 20.92597122 -32.99233943 12.34230962 -23.98046875 5.45703125 C-17.34461441 1.13040347 -7.86443737 -3.14577495 0 0 Z " fill="#000000" transform="translate(100,155)"/>
<path d="M0 0 C11.13658961 3.04098757 18.47734446 8.96042239 24.17578125 18.8671875 C26.91627205 24.31749197 27.50092713 28.79779766 27.17578125 34.8671875 C28.84640625 34.8053125 28.84640625 34.8053125 30.55078125 34.7421875 C34.17578125 34.8671875 34.17578125 34.8671875 36.17578125 36.8671875 C36.42578125 39.3671875 36.42578125 39.3671875 36.17578125 41.8671875 C33.55049125 44.4924775 31.54995933 44.53886527 27.92578125 45.2421875 C19.60429814 47.09140597 13.80509203 50.62787955 9.17578125 57.8671875 C7.88460317 61.13920907 7.01730179 64.45622423 6.17578125 67.8671875 C4.3296274 73.71334135 4.3296274 73.71334135 3.17578125 74.8671875 C0.73828125 75.0546875 0.73828125 75.0546875 -1.82421875 74.8671875 C-3.82421875 72.8671875 -3.82421875 72.8671875 -4.19921875 68.9296875 C-3.96492822 59.82164314 -0.08146729 51.41015515 6.17578125 44.8671875 C9.90584654 41.56917611 13.20952556 38.82733027 18.17578125 37.8671875 C16.82297209 28.18392191 15.04781706 20.36113689 7.08984375 14.11328125 C1.3921614 10.40397376 -5.23997854 9.16269773 -11.82421875 7.8671875 C-12.15421875 5.8871875 -12.48421875 3.9071875 -12.82421875 1.8671875 C-8.52637838 -2.1251192 -5.42978971 -1.07402434 0 0 Z " fill="#000000" transform="translate(153.82421875,146.1328125)"/>
</svg>
